
v 0.000000 68.052055 89.081306
v 64.721359 21.029240 89.081306
v 40.000000 -55.055283 89.081306
v -40.000000 -55.055283 89.081306
v -64.721359 21.029240 89.081306
v 0.000000 -68.052055 -89.081306
v -64.721359 -21.029240 -89.081306
v -40.000000 55.055283 -89.081306
v 40.000000 55.055283 -89.081306
v 64.721359 -21.029240 -89.081306
v 0.000000 110.110558 21.029249
v 104.721359 34.026031 21.029245
v 64.721359 -89.081306 21.029240
v -64.721359 -89.081306 21.029240
v -104.721359 34.026031 21.029245
v 0.000000 -110.110558 -21.029249
v -104.721359 -34.026031 -21.029245
v -64.721359 89.081306 -21.029240
v 64.721359 89.081306 -21.029240
v 104.721359 -34.026031 -21.029245
vn 0.525700 0.723600 0.447200
vn 0.850700 -0.276400 0.447200
vn 0.850700 0.276400 -0.447200
vn 0.000000 0.894400 -0.447200
vn 0.000000 0.000000 -1.000000
vn -0.525700 -0.723600 -0.447200
vn 0.525700 -0.723600 -0.447200
vn -0.850700 0.276400 -0.447200
vn -0.850700 -0.276400 0.447200
vn 0.000000 -0.894400 0.447200
vn -0.525700 0.723600 0.447200
vn 0.000000 0.000000 1.000000

f 12//1 19//1 11//1 1//1 2//1
f 12//2 2//2 3//2 13//2 20//2
f 20//3 10//3 9//3 19//3 12//3
f 9//4 8//4 18//4 11//4 19//4
f 8//5 9//5 10//5 6//5 7//5
f 7//6 6//6 16//6 14//6 17//6
f 13//7 16//7 6//7 10//7 20//7
f 8//8 7//8 17//8 15//8 18//8
f 17//9 14//9 4//9 5//9 15//9
f 3//10 4//10 14//10 16//10 13//10
f 18//11 15//11 5//11 1//11 11//11
f 3//12 2//12 1//12 5//12 4//12

l 8 9
l 8 18
l 15 17
l 15 18
l 2 12
l 11 18
l 1 11
l 12 20
l 13 20
l 3 4
l 5 1
l 4 5
l 10 20
l 6 7
l 10 6
l 6 16
l 9 19
l 2 3
l 4 14
l 5 15
l 9 10
l 3 13
l 13 16
l 7 17
l 14 16
l 14 17
l 1 2
l 12 19
l 7 8
l 11 19

