# Blender 4.1.0
# www.blender.org
o Cylinder
v 0.140258 0.004320 -0.000000
v 0.140258 0.003947 -0.001888
v 0.140258 0.001335 -0.004239
v -0.140258 0.002670 -0.008348
v -0.140258 -0.000903 -0.008723
v -0.140258 -0.004320 -0.007613
v 0.140258 -0.003495 -0.002670
v 0.140258 -0.004226 -0.001029
v 0.140258 -0.004226 0.000767
v -0.140258 -0.008451 0.001666
v 0.140258 -0.000452 0.004166
v -0.140258 -0.000903 0.008462
v -0.140258 0.002670 0.008086
v 0.140258 0.002891 0.003080
v -0.140258 0.007893 0.003383
v 0.092059 0.020160 -0.000000
v 0.031626 0.028800 -0.000000
v -0.031626 0.028800 -0.000000
v -0.092059 0.020160 -0.000000
v 0.031626 0.026310 -0.011845
v 0.092059 0.018417 -0.008331
v 0.092059 0.013490 -0.015113
v -0.092059 0.006230 -0.019304
v -0.031626 0.008900 -0.027521
v 0.031626 0.008900 -0.027521
v 0.092059 -0.002107 -0.020180
v -0.031626 -0.014400 -0.025072
v 0.031626 -0.014400 -0.025072
v 0.092059 -0.010080 -0.017590
v -0.092059 -0.016310 -0.011981
v 0.092059 -0.016310 -0.011981
v -0.031626 -0.028171 -0.006119
v 0.092059 -0.019719 -0.004322
v -0.031626 -0.028171 0.005857
v 0.031626 -0.028171 0.005857
v -0.092059 -0.016310 0.011719
v 0.031626 -0.023300 0.016797
v -0.031626 -0.014400 0.024811
v 0.031626 -0.014400 0.024811
v -0.092059 -0.002107 0.019919
v -0.092059 0.006230 0.019043
v -0.031626 0.008900 0.027260
v 0.031626 0.008900 0.027260
v 0.092059 0.006230 0.019043
v -0.031626 0.019271 0.021272
v 0.031626 0.019271 0.021272
v 0.092059 0.013490 0.014851
v -0.031626 0.026310 0.011583
v -0.140258 0.008640 -0.000000
v -0.140258 0.034869 -0.000000
v -0.123106 0.041334 -0.000000
v -0.004167 0.005000 -0.179985
v -0.043997 0.005000 -0.179985
v -0.004167 -0.000000 -0.179985
v -0.043997 -0.000000 -0.179985
v 0.056784 0.005000 -0.000000
v -0.018035 0.005000 -0.000000
v 0.056784 0.000000 0.000000
v -0.018035 0.000000 0.000000
v 0.140258 0.003947 0.001888
v -0.140258 0.005781 0.006552
v 0.140258 0.001335 0.004239
v 0.140258 -0.002160 0.003872
v -0.140258 -0.004320 0.007613
v 0.140258 -0.003495 0.002670
v -0.140258 -0.006990 0.005209
v -0.140258 -0.008451 -0.001666
v -0.140258 -0.006990 -0.004948
v 0.140258 -0.002160 -0.003610
v 0.140258 -0.000452 -0.004166
v 0.140258 0.002891 -0.003080
v -0.140258 0.005781 -0.006290
v -0.140258 0.007893 -0.003383
v -0.092059 0.018417 0.008331
v 0.031626 0.026310 0.011845
v 0.092059 0.018417 0.008331
v -0.092059 0.013490 0.015113
v -0.031626 -0.003010 0.028773
v 0.031626 -0.003010 0.028773
v 0.092059 -0.002107 0.020180
v -0.092059 -0.010080 0.017590
v 0.092059 -0.010080 0.017590
v -0.031626 -0.023300 0.017059
v 0.092059 -0.016310 0.011981
v -0.092059 -0.019719 0.004322
v 0.092059 -0.019719 0.004322
v -0.092059 -0.019719 -0.004061
v 0.031626 -0.028171 -0.005857
v -0.031626 -0.023300 -0.016797
v 0.031626 -0.023300 -0.016797
v -0.092059 -0.010080 -0.017328
v -0.092059 -0.002107 -0.019919
v -0.031626 -0.003010 -0.028511
v 0.031626 -0.003010 -0.028511
v 0.092059 0.006230 -0.019043
v -0.092059 0.013490 -0.014851
v -0.031626 0.019271 -0.021272
v 0.031626 0.019271 -0.021272
v -0.031626 0.026310 -0.011583
v -0.092059 0.018417 -0.008069
v -0.004167 0.005000 0.179985
v -0.043997 0.005000 0.179985
v -0.004167 0.000000 0.179985
v -0.043997 0.000000 0.179985
vn -0.2274 0.4869 -0.8434
vn -0.2276 0.4868 -0.8433
vn -0.2276 0.1017 -0.9684
vn -0.2276 -0.3008 -0.9261
vn -0.2276 -0.6515 -0.7237
vn -0.2277 -0.8896 -0.3959
vn -0.2277 -0.8896 -0.3960
vn -0.2276 -0.9737 -0.0000
vn -0.2276 -0.8896 0.3960
vn -0.2276 -0.6515 0.7237
vn -0.2276 -0.3009 0.9261
vn -0.2277 0.1018 0.9684
vn -0.2274 0.4869 0.8433
vn -0.2277 0.4869 0.8433
vn -1.0000 -0.0000 -0.0000
vn -0.2277 0.7878 0.5723
vn 1.0000 -0.0000 -0.0000
vn 0.3060 0.7702 0.5595
vn 0.3060 0.7702 0.5596
vn 0.1385 0.8013 0.5821
vn 0.1385 0.8012 0.5821
vn -0.0000 0.8090 0.5878
vn -0.1385 0.8012 0.5821
vn -0.0000 0.9777 0.2102
vn -0.1385 0.9682 0.2085
vn -0.1385 0.9682 0.2086
vn 0.3060 0.4760 0.8245
vn 0.1385 0.4952 0.8577
vn -0.0000 0.5000 0.8660
vn -0.1385 0.4952 0.8577
vn 0.3060 0.0995 0.9468
vn 0.1385 0.1035 0.9849
vn 0.1384 0.1035 0.9850
vn -0.0000 0.1045 0.9945
vn -0.1385 0.1035 0.9849
vn 0.3060 -0.2943 0.9054
vn 0.1385 -0.3060 0.9419
vn -0.0000 -0.3090 0.9511
vn -0.1385 -0.3060 0.9419
vn 0.1385 -0.6627 0.7360
vn -0.0000 -0.6692 0.7431
vn -0.0000 -0.6691 0.7431
vn -0.1385 -0.6627 0.7360
vn 0.3060 -0.8697 0.3872
vn 0.1385 -0.9048 0.4028
vn -0.0000 -0.9135 0.4067
vn -0.0000 -0.9136 0.4067
vn -0.1385 -0.9048 0.4028
vn 0.3060 -0.9520 -0.0000
vn 0.1385 -0.9904 -0.0000
vn -0.0000 -1.0000 -0.0000
vn -0.1385 -0.9904 -0.0000
vn 0.3060 -0.8697 -0.3872
vn 0.1385 -0.9048 -0.4028
vn -0.0000 -0.9135 -0.4068
vn -0.1385 -0.9047 -0.4028
vn 0.3060 -0.6370 -0.7075
vn 0.1385 -0.6627 -0.7360
vn -0.0000 -0.6691 -0.7432
vn -0.1385 -0.6627 -0.7360
vn 0.3060 -0.2941 -0.9054
vn 0.3061 -0.2941 -0.9054
vn 0.1385 -0.3060 -0.9419
vn -0.0000 -0.3090 -0.9511
vn -0.1385 -0.3060 -0.9419
vn 0.3060 0.0995 -0.9468
vn 0.1385 0.1035 -0.9849
vn -0.0000 0.1046 -0.9945
vn -0.1385 0.1035 -0.9849
vn -0.1384 0.1035 -0.9850
vn 0.3060 0.4759 -0.8245
vn 0.1385 0.4952 -0.8577
vn -0.0000 0.5000 -0.8660
vn -0.1384 0.4952 -0.8577
vn -0.1385 0.4952 -0.8577
vn 0.3060 0.7702 -0.5596
vn 0.1385 0.8012 -0.5821
vn -0.0000 0.8090 -0.5878
vn 0.3060 0.9322 -0.1930
vn 0.1385 0.9693 -0.2034
vn -0.0000 0.9786 -0.2057
vn -0.1110 0.1562 0.9815
vn -0.0000 1.0000 -0.0000
vn -0.9472 -0.0000 0.3208
vn 0.9898 -0.0000 -0.1428
vn -0.0000 -0.0000 -1.0000
vn -0.2277 0.7878 -0.5723
vn -0.1385 0.8012 -0.5821
vn -0.1385 0.9682 -0.2085
vn 0.3060 -0.6370 0.7075
vn 0.3060 0.9322 0.1930
vn 0.1385 0.9693 0.2034
vn -0.1110 0.1562 -0.9815
vn 0.5552 0.8141 0.1703
vn 0.5547 0.8133 -0.1757
vn -0.9472 -0.0000 -0.3208
vn 0.9898 -0.0000 0.1428
vn -0.0000 -0.0000 1.0000
s 0
usemtl Material.001
f 96//1 23//2 4//2 72//2
f 23//3 92//3 5//3 4//3
f 92//4 91//4 6//4 5//4
f 91//5 30//5 68//5 6//5
f 30//6 87//6 67//7 68//7
f 87//8 85//8 10//8 67//8
f 85//9 36//9 66//9 10//9
f 36//10 81//10 64//10 66//10
f 81//11 40//11 12//11 64//11
f 40//12 41//12 13//12 12//12
f 41//13 77//14 61//14 13//14
f 73//15 72//15 4//15 5//15 6//15 68//15 67//15 10//15 66//15 64//15 12//15 13//15 61//15 15//15 49//15
f 77//16 74//16 15//16 61//16
f 1//17 60//17 14//17 62//17 11//17 63//17 65//17 9//17 8//17 7//17 69//17 70//17 3//17 71//17 2//17
f 14//18 60//18 76//19 47//18
f 47//20 76//21 75//21 46//21
f 46//22 75//22 48//22 45//22
f 45//23 48//23 74//23 77//23
f 75//24 17//24 18//24 48//24
f 48//25 18//26 19//25 74//26
f 62//27 14//27 47//27 44//27
f 44//28 47//28 46//28 43//28
f 43//29 46//29 45//29 42//29
f 42//30 45//30 77//30 41//30
f 11//31 62//31 44//31 80//31
f 80//32 44//32 43//33 79//32
f 79//34 43//34 42//34 78//34
f 78//35 42//35 41//35 40//35
f 63//36 11//36 80//36 82//36
f 82//37 80//37 79//37 39//37
f 39//38 79//38 78//38 38//38
f 38//39 78//39 40//39 81//39
f 84//40 82//40 39//40 37//40
f 37//41 39//42 38//41 83//42
f 83//43 38//43 81//43 36//43
f 9//44 65//44 84//44 86//44
f 86//45 84//45 37//45 35//45
f 35//46 37//47 83//46 34//47
f 34//48 83//48 36//48 85//48
f 8//49 9//49 86//49 33//49
f 33//50 86//50 35//50 88//50
f 88//51 35//51 34//51 32//51
f 32//52 34//52 85//52 87//52
f 7//53 8//53 33//53 31//53
f 31//54 33//54 88//54 90//54
f 90//55 88//55 32//55 89//55
f 89//56 32//56 87//56 30//56
f 69//57 7//57 31//57 29//57
f 29//58 31//58 90//58 28//58
f 28//59 90//59 89//59 27//59
f 27//60 89//60 30//60 91//60
f 70//61 69//62 29//61 26//61
f 26//63 29//63 28//63 94//63
f 94//64 28//64 27//64 93//64
f 93//65 27//65 91//65 92//65
f 3//66 70//66 26//66 95//66
f 95//67 26//67 94//67 25//67
f 25//68 94//68 93//68 24//68
f 24//69 93//69 92//70 23//69
f 71//71 3//71 95//71 22//71
f 22//72 95//72 25//72 98//72
f 98//73 25//73 24//73 97//73
f 97//74 24//75 23//75 96//75
f 2//76 71//76 22//76 21//76
f 21//77 22//77 98//77 20//77
f 20//78 98//78 97//78 99//78
f 1//79 2//79 21//79 16//79
f 16//80 21//80 20//80 17//80
f 17//81 20//81 99//81 18//81
f 15//82 74//82 51//82 50//82
f 49//15 15//15 50//15
f 57//83 56//83 52//83 53//83
f 58//84 56//84 52//84 54//84
f 57//85 59//85 55//85 53//85
f 53//86 52//86 54//86 55//86
f 59//83 58//83 54//83 55//83
f 96//87 72//87 73//87 100//87
f 97//88 96//88 100//88 99//88
f 99//89 100//89 19//89 18//89
f 63//90 82//90 84//90 65//90
f 1//91 16//91 76//91 60//91
f 16//92 17//92 75//92 76//92
f 73//93 50//93 51//93 100//93
f 51//94 74//94 19//94
f 19//95 100//95 51//95
f 49//15 50//15 73//15
f 57//83 102//83 101//83 56//83
f 58//96 103//96 101//96 56//96
f 57//97 102//97 104//97 59//97
f 102//98 104//98 103//98 101//98
f 59//83 104//83 103//83 58//83
